<svg xmlns="http://www.w3.org/2000/svg" width="65.25" height="45" viewBox="0 0 65.25 45">
  <g id="Grupo_1396" data-name="Grupo 1396" transform="translate(-41 -321)">
    <g id="Rectángulo_571" data-name="Rectángulo 571" transform="translate(41 321)" fill="#fff" stroke="#707070" stroke-width="1" opacity="0">
      <rect width="65.25" height="45" stroke="none"/>
      <rect x="0.5" y="0.5" width="64.25" height="44" fill="none"/>
    </g>
    <path id="payment-debit-card" d="M2.881,26.277V44.355a.753.753,0,0,0,.751.754H59.4a.753.753,0,0,0,.751-.754V21.32H9.8a1.258,1.258,0,0,1,0-2.515H60.159V9.148a.753.753,0,0,0-.751-.754H3.632a.753.753,0,0,0-.751.754V23.762H52.237a1.258,1.258,0,0,1,0,2.515Zm.751-20.4H59.4a3.264,3.264,0,0,1,3.257,3.27V44.355a3.265,3.265,0,0,1-3.257,3.27H3.632a3.265,3.265,0,0,1-3.257-3.27V9.145a3.265,3.265,0,0,1,3.257-3.27ZM47.464,40.6a1.151,1.151,0,1,1-1.151-1.155A1.153,1.153,0,0,1,47.464,40.6Zm4.6,0a1.151,1.151,0,1,1-1.151-1.155A1.153,1.153,0,0,1,52.062,40.6Zm4.6,0a1.151,1.151,0,1,1-1.151-1.155A1.153,1.153,0,0,1,56.661,40.6ZM10.3,41.947a1.258,1.258,0,0,1,0-2.515H39.7a1.258,1.258,0,0,1,0,2.515Z" transform="translate(41.625 317.125)" fill="#686868"/>
  </g>
</svg>
