<svg xmlns="http://www.w3.org/2000/svg" width="52" height="45" viewBox="0 0 52 45">
  <g id="Grupo_1394" data-name="Grupo 1394" transform="translate(-164 -363)">
    <g id="Rectángulo_569" data-name="Rectángulo 569" transform="translate(164 363)" fill="#686868" stroke="#707070" stroke-width="1" opacity="0">
      <rect width="52" height="45" stroke="none"/>
      <rect x="0.5" y="0.5" width="51" height="44" fill="none"/>
    </g>
    <path id="payment-cash" d="M45.368,29.535a2.347,2.347,0,0,1-2.5,2.156h-.63V33.7A2.206,2.206,0,0,1,39.9,35.745H2.739A2.207,2.207,0,0,1,.4,33.7V14.557a1.9,1.9,0,0,1,.677-1.443,2.554,2.554,0,0,1,1.662-.607h.794v-1.9a2.347,2.347,0,0,1,2.5-2.156h.63v-1.9A2.347,2.347,0,0,1,9.163,4.4H46a2.347,2.347,0,0,1,2.5,2.156V25.479A2.347,2.347,0,0,1,46,27.636h-.63v1.9ZM46,26.025a.592.592,0,0,0,.63-.543V6.56A.591.591,0,0,0,46,6.017H9.171a.591.591,0,0,0-.63.543V8.453H42.862a2.347,2.347,0,0,1,2.5,2.156V26.025H46ZM5.408,12.507H39.9a2.206,2.206,0,0,1,2.339,2.047V30.077h.63a.592.592,0,0,0,.63-.543V10.609a.592.592,0,0,0-.63-.543H6.038a.591.591,0,0,0-.63.543ZM2.739,14.05a.543.543,0,0,0-.575.506V33.7a.543.543,0,0,0,.575.506H39.9a.543.543,0,0,0,.575-.506V14.556a.543.543,0,0,0-.575-.506Zm30.6,2.553a.775.775,0,1,1,0-1.539h2.6A2.418,2.418,0,0,1,38.6,17.12v2.545a.892.892,0,0,1-1.764,0V17.12c0-.259-.391-.517-.9-.517h-2.6Zm3.488,12.635a.892.892,0,0,1,1.764,0v1.978a1.994,1.994,0,0,1-.8,1.448,2.673,2.673,0,0,1-1.753.536h-2.7a.775.775,0,1,1,0-1.539h2.7c.445,0,.788-.221.788-.443ZM9.3,31.653a.775.775,0,1,1,0,1.539H6.535a2.28,2.28,0,0,1-2.492-1.971V29.233a.828.828,0,0,1,.882-.761.828.828,0,0,1,.882.761v1.989c0,.218.316.431.729.431ZM5.806,19.665a.828.828,0,0,1-.882.761.828.828,0,0,1-.882-.761V17.112a2.337,2.337,0,0,1,2.543-2.047H9.3a.775.775,0,1,1,0,1.539H6.585a.7.7,0,0,0-.779.505v2.553ZM21.682,31.282a8.439,8.439,0,0,1-7.753-4.339,6.444,6.444,0,0,1,1.716-7.832,9.273,9.273,0,0,1,9.054-1.6,7.233,7.233,0,0,1,5.149,6.619C29.883,28.05,26.227,31.252,21.682,31.282Zm0-1.541a6.623,6.623,0,0,0,6.088-3.4,5.055,5.055,0,0,0-1.342-6.147,7.275,7.275,0,0,0-7.1-1.258,5.675,5.675,0,0,0-4.042,5.194c-.028,3.073,2.837,5.585,6.4,5.611Zm.577-1.945H21.136v-.909a3.942,3.942,0,0,1-.85-.213,2.911,2.911,0,0,1-.867-.486l-.092-.077.693-.912.132.092a3.636,3.636,0,0,0,.693.385,1.862,1.862,0,0,0,.719.139,1,1,0,0,0,.638-.164.572.572,0,0,0,.2-.473.53.53,0,0,0-.166-.4,2.049,2.049,0,0,0-.48-.332c-.2-.1-.422-.206-.655-.3a4.179,4.179,0,0,1-.693-.362,2.062,2.062,0,0,1-.554-.517,1.282,1.282,0,0,1-.227-.771,1.544,1.544,0,0,1,.445-1.127,2,2,0,0,1,1.066-.545v-.936H22.26v.912a2.35,2.35,0,0,1,.77.248,3.414,3.414,0,0,1,.667.473l.1.086-.8.793L22.88,22.3a2.409,2.409,0,0,0-.517-.332,1.346,1.346,0,0,0-.561-.106.864.864,0,0,0-.549.149.513.513,0,0,0-.184.431.431.431,0,0,0,.158.345,2.164,2.164,0,0,0,.482.3c.206.1.425.194.661.291a4.025,4.025,0,0,1,.695.367,1.964,1.964,0,0,1,.554.542,1.413,1.413,0,0,1,.225.813,1.632,1.632,0,0,1-.442,1.16,2.09,2.09,0,0,1-1.138.582v.949Z" transform="translate(165.6 365.601)" fill="#686868"/>
  </g>
</svg>
