<svg xmlns="http://www.w3.org/2000/svg" width="101" height="45" viewBox="0 0 101 45">
  <g id="Grupo_1385" data-name="Grupo 1385" transform="translate(-76 -443)">
    <g id="Grupo_1375" data-name="Grupo 1375" transform="translate(76 443)" opacity="0">
      <g id="Rectángulo_568" data-name="Rectángulo 568" fill="#fff" stroke="#707070" stroke-width="1">
        <rect width="101" height="45" stroke="none"/>
        <rect x="0.5" y="0.5" width="100" height="44" fill="none"/>
      </g>
    </g>
    <g id="_2560px-Sodexo_logo" data-name="2560px-Sodexo_logo" transform="translate(77.005 447)">
      <g id="_2b3797ff" data-name="#2b3797ff" transform="translate(0 0)">
        <path id="Trazado_5243" data-name="Trazado 5243" d="M1046.64,16.762c.667-1.321,1.261-2.681,1.944-3.992q.279,2.034.548,4.071c1.319-.453,2.631-.924,3.95-1.376L1050.326,19c.99.781,2,1.541,2.987,2.325-1.327.1-2.654.215-3.982.3-.095,1.42-.15,2.843-.23,4.265-.754-1.037-1.479-2.1-2.222-3.142-1.091.994-2.159,2.011-3.262,2.991l1.218-4.223c-1.278-.174-2.556-.353-3.835-.518,1.231-.737,2.494-1.42,3.733-2.146-.515-1.212-1.021-2.426-1.534-3.639C1044.36,15.7,1045.48,16.266,1046.64,16.762Z" transform="translate(-960.3 -12.77)" fill="#2b3797"/>
        <path id="Trazado_5244" data-name="Trazado 5244" d="M460.806,163.726c1.108-.078,2.217-.144,3.327-.216q-1.111,5.859-2.229,11.718a13.528,13.528,0,0,1-.929,3.349,6.952,6.952,0,0,1-2.757,3.2,9.609,9.609,0,0,1-5.049,1.168,7.987,7.987,0,0,1-4.346-1.163,4.974,4.974,0,0,1-2.07-2.851,7.467,7.467,0,0,1,.394-4.615,7.672,7.672,0,0,1,3.2-3.781,11.411,11.411,0,0,1,5.176-1.514c1.413-.088,2.828,0,4.241.043.343-1.78.7-3.556,1.044-5.335m-6.224,7.744a5.675,5.675,0,0,0-2.906,1.645,6.678,6.678,0,0,0-1.539,3.6,3.529,3.529,0,0,0,.536,2.661,3.186,3.186,0,0,0,2.267,1.058,5.1,5.1,0,0,0,3.521-.8,4.667,4.667,0,0,0,1.647-2.826q.557-2.745,1.1-5.493a13.428,13.428,0,0,0-4.628.152Z" transform="translate(-412.471 -146.686)" fill="#2b3797"/>
        <path id="Trazado_5245" data-name="Trazado 5245" d="M1062.06,234.41a9.482,9.482,0,0,1,5.078.846,4.887,4.887,0,0,1,2.426,2.768,6.983,6.983,0,0,1-.3,4.665,8.973,8.973,0,0,1-4.5,4.764,11.254,11.254,0,0,1-4.706,1.1,9.994,9.994,0,0,1-3.338-.449,5.521,5.521,0,0,1-2.846-2.006,5.19,5.19,0,0,1-.871-3.281,8.578,8.578,0,0,1,2.8-5.812,10.468,10.468,0,0,1,6.255-2.592m-.166,2.34a5.585,5.585,0,0,0-2.956,1.345,6.805,6.805,0,0,0-2.221,4.725,3.1,3.1,0,0,0,.714,2.3,3.493,3.493,0,0,0,2.385.96,5.682,5.682,0,0,0,3.96-1.2,6.356,6.356,0,0,0,2.214-3.782,4.428,4.428,0,0,0-.17-2.57,2.81,2.81,0,0,0-1.322-1.417,4.543,4.543,0,0,0-2.6-.364Z" transform="translate(-971.353 -211.99)" fill="#2b3797"/>
        <path id="Trazado_5246" data-name="Trazado 5246" d="M225.388,235.3a9.516,9.516,0,0,1,4.931.759,4.855,4.855,0,0,1,2.466,2.643,6.575,6.575,0,0,1-.1,4.334,8.592,8.592,0,0,1-3.056,4.175,10.616,10.616,0,0,1-5.937,2,8.884,8.884,0,0,1-4.647-.937,4.776,4.776,0,0,1-2.265-2.687,6.82,6.82,0,0,1,.246-4.387,8.749,8.749,0,0,1,4.076-4.64,10.827,10.827,0,0,1,4.281-1.257M225,237.646a5.772,5.772,0,0,0-4,3.035,6.923,6.923,0,0,0-.806,3.192,2.834,2.834,0,0,0,.847,2.112,3.793,3.793,0,0,0,2.515.817,5.55,5.55,0,0,0,3.77-1.344,6.359,6.359,0,0,0,2.059-3.927,3.955,3.955,0,0,0-.355-2.443,2.828,2.828,0,0,0-1.53-1.288A4.869,4.869,0,0,0,225,237.646Z" transform="translate(-200.495 -212.81)" fill="#2b3797"/>
        <path id="Trazado_5247" data-name="Trazado 5247" d="M668.519,234.994a10.061,10.061,0,0,1,4.4.4,3.446,3.446,0,0,1,1.986,1.7,3.536,3.536,0,0,1-.409,3.5,5.455,5.455,0,0,1-2.364,1.712,12.335,12.335,0,0,1-4.164.81,18.958,18.958,0,0,1-4.409-.38,4.313,4.313,0,0,0,.736,3,5.179,5.179,0,0,0,3.032,1.747,16.517,16.517,0,0,0,5.363.176,9.524,9.524,0,0,1-4.085,1.508,10.48,10.48,0,0,1-4.455-.384,6.1,6.1,0,0,1-3.272-2.378,5.157,5.157,0,0,1-.823-3.012,8.218,8.218,0,0,1,1.842-5.054,9.735,9.735,0,0,1,6.619-3.351M666.19,238a6.052,6.052,0,0,0-2.151,2.728,14.278,14.278,0,0,0,5.551.04,3.471,3.471,0,0,0,1.971-1.074,1.738,1.738,0,0,0,.138-1.905,1.985,1.985,0,0,0-1.45-.754,5.953,5.953,0,0,0-4.059.965Z" transform="translate(-609.236 -212.496)" fill="#2b3797"/>
        <path id="Trazado_5248" data-name="Trazado 5248" d="M21.418,236.957a30.031,30.031,0,0,1,6.962.28c-.213.64-.454,1.271-.681,1.908a32.875,32.875,0,0,0-5.331-.1,9.942,9.942,0,0,0-2.592.5,2.058,2.058,0,0,0-1.091.792.923.923,0,0,0,.167,1.132,3.045,3.045,0,0,0,1.383.573,26.844,26.844,0,0,1,4.3.893,2.94,2.94,0,0,1,1.665,1.4,3.723,3.723,0,0,1,.09,2.424,4.353,4.353,0,0,1-1.933,2.615,9.392,9.392,0,0,1-3.914,1.25,23.46,23.46,0,0,1-6.484-.241,12.007,12.007,0,0,1-1.864-.435c.19-.653.34-1.317.515-1.974a32.679,32.679,0,0,0,5.362.457,9.8,9.8,0,0,0,3.04-.443,2.474,2.474,0,0,0,1.453-1.13,1.414,1.414,0,0,0-.031-1.432,2.357,2.357,0,0,0-1.34-.687,33.225,33.225,0,0,1-4.532-.871,2.624,2.624,0,0,1-1.614-1.451,3.2,3.2,0,0,1,.3-2.691,4.828,4.828,0,0,1,2.151-1.779,12.5,12.5,0,0,1,4.019-.99Z" transform="translate(-12.095 -214.283)" fill="#2b3797"/>
        <path id="Trazado_5249" data-name="Trazado 5249" d="M862.27,236.855c1.031,0,2.063-.009,3.1.005,1.288,1.776,2.73,3.433,4.163,5.092q-1.121.982-2.281,1.919a68.81,68.81,0,0,1-4.982-7.016Z" transform="translate(-795.59 -215.725)" fill="#2b3797"/>
        <path id="Trazado_5250" data-name="Trazado 5250" d="M949.02,332.423a18.891,18.891,0,0,0,2.371-1.893l.179.075c1.9,2.167,3.908,4.234,5.875,6.338-1.4.009-2.8,0-4.192,0a60.713,60.713,0,0,1-4.233-4.52Z" transform="translate(-875.535 -300.606)" fill="#2b3797"/>
      </g>
      <g id="_ed1c24ff" data-name="#ed1c24ff" transform="translate(63.51 18.119)">
        <path id="Trazado_5251" data-name="Trazado 5251" d="M841.094,180.572a6.948,6.948,0,0,1,.489-.552,27.105,27.105,0,0,1-7.163,11.618c-.074.064-.153.122-.224.187a18.888,18.888,0,0,1-2.371,1.893,18.333,18.333,0,0,1-9.975,3.345A59.93,59.93,0,0,0,830,191.5q1.16-.935,2.281-1.919a86.257,86.257,0,0,0,8.813-9.009Z" transform="translate(-821.85 -180.02)" fill="#ed1c24"/>
      </g>
    </g>
  </g>
</svg>
