<svg xmlns="http://www.w3.org/2000/svg" width="101" height="45" viewBox="0 0 101 45">
  <g id="Grupo_1381" data-name="Grupo 1381" transform="translate(-158 -603)">
    <g id="Grupo_1374" data-name="Grupo 1374" transform="translate(158 603)" opacity="0">
      <g id="Rectángulo_568" data-name="Rectángulo 568" fill="#fff" stroke="#707070" stroke-width="1">
        <rect width="101" height="45" stroke="none"/>
        <rect x="0.5" y="0.5" width="100" height="44" fill="none"/>
      </g>
    </g>
    <g id="webpay" transform="translate(158.997 613.649)">
      <g id="_ffffffff" data-name="#ffffffff" transform="translate(82.032 7.268)">
        <path id="Trazado_5373" data-name="Trazado 5373" d="M367.322,37.942h.822v5.534h-.82Q367.326,40.706,367.322,37.942Z" transform="translate(-362.759 -37.942)" fill="#fff"/>
        <path id="Trazado_5374" data-name="Trazado 5374" d="M372.419,43.82l.776.007c.02.986-.007,1.972.061,2.955a1.234,1.234,0,0,0,1.986,0,20.564,20.564,0,0,0,.11-2.96l.78.007c.037,1.353,0,2.708.027,4.061l-.729.032.066-.568c-.763,1.005-2.7.9-3.011-.44a20.694,20.694,0,0,1-.066-3.094Z" transform="translate(-366.591 -42.383)" fill="#fff"/>
        <path id="Trazado_5375" data-name="Trazado 5375" d="M348.689,43.574l.739-.012v.683a2,2,0,0,1,3.462.56,2.1,2.1,0,0,1-1.671,2.938,2.072,2.072,0,0,1-1.781-.678c.025.7.025,1.387.017,2.082h-.768q-.007-2.789,0-5.575m1.39.837a1.416,1.416,0,0,0,.284,2.508,1.4,1.4,0,1,0-.283-2.506Z" transform="translate(-348.684 -42.123)" fill="#fff"/>
        <path id="Trazado_5376" data-name="Trazado 5376" d="M388.385,45.044a1.286,1.286,0,0,1,1.465-1.534,1.4,1.4,0,0,1,1.272,1.206l-.687-.01c-.184-.36-.568-.729-.993-.489-.457.137-.3.844.122.908.68.242,1.715.472,1.639,1.407.01,1.211-1.646,1.639-2.476.949a2.142,2.142,0,0,1-.558-.988c.465-.051.917-.032,1.1.465.362.514,1.375.012,1.059-.612C389.819,45.731,388.664,45.89,388.385,45.044Z" transform="translate(-378.509 -42.139)" fill="#fff"/>
      </g>
      <g id="_ff0005ff" data-name="#ff0005ff" transform="translate(80.835)">
        <path id="Trazado_5377" data-name="Trazado 5377" d="M343.783,16.269c2.716-2.659,5.348-5.409,8.1-8.029a5.531,5.531,0,0,1,1.6,1.326c2.515,2.532,5.062,5.032,7.574,7.569a.673.673,0,0,1-.02,1.118c-2.111,2.055-4.169,4.169-6.27,6.236-.609.572-1.157,1.47-2.116,1.365-2.7,0-5.4.01-8.105,0-.313.022-.8-.12-.749-.521-.024-3.019,0-6.04-.01-9.062m5.759-.761v5.531h.82V15.507h-.822m1.265,1.436a20.7,20.7,0,0,0,.066,3.092c.313,1.341,2.248,1.446,3.012.44l-.066.568.729-.032c-.029-1.353.01-2.708-.027-4.061l-.78-.007a20.586,20.586,0,0,1-.11,2.96,1.234,1.234,0,0,1-1.986,0c-.069-.983-.042-1.969-.061-2.955l-.776-.007m-5.823.015q-.007,2.785,0,5.575h.768c.007-.695.007-1.387-.017-2.082a2.071,2.071,0,0,0,1.781.678,2.1,2.1,0,0,0,1.671-2.938,2,2,0,0,0-3.462-.56v-.683l-.739.012m9.871,1.453c.279.846,1.434.687,1.947,1.3.316.624-.7,1.125-1.059.612-.186-.5-.638-.516-1.1-.465a2.14,2.14,0,0,0,.558.988c.829.69,2.485.262,2.476-.949.076-.935-.959-1.165-1.639-1.407-.421-.064-.58-.771-.122-.908.426-.24.81.13.993.489l.687.01a1.4,1.4,0,0,0-1.272-1.206,1.286,1.286,0,0,0-1.473,1.537Z" transform="translate(-343.783 -8.24)" fill="#ff0005"/>
        <path id="Trazado_5378" data-name="Trazado 5378" d="M352.418,46.608a1.409,1.409,0,1,1,.284,2.508,1.416,1.416,0,0,1-.284-2.508Z" transform="translate(-349.827 -37.052)" fill="#ff0005"/>
      </g>
      <g id="_000000ff" data-name="#000000ff" transform="translate(0 3.511)">
        <path id="Trazado_5379" data-name="Trazado 5379" d="M41.458,22.575h3c-.02,1.955-.007,3.907-.01,5.862a5.419,5.419,0,0,1,3.589-1.886,6.273,6.273,0,0,1,5.074,1.8c2.769,2.9,2.331,8.359-1.179,10.488-2.349,1.416-6.03,1.294-7.577-1.235.007.594.01,1.191.007,1.786H41.453q.026-1.791.01-3.584a7.32,7.32,0,0,1-4.193,3.723A6.58,6.58,0,0,1,30.3,37.464a7.125,7.125,0,0,1-1.563-5c-.592,2.341-1.343,4.638-2.009,6.96h-2.6c-.756-2.811-1.414-5.654-2.287-8.428-.69,2.823-1.478,5.619-2.2,8.435q-1.281-.011-2.561,0c-1.213-4.181-2.468-8.347-3.706-12.521.952.015,1.9.007,2.85.01q1.141,4.319,2.256,8.646l.281-.135-.191-.11c.812-2.652,1.434-5.363,2.207-8.029.766.007,1.531,0,2.3.007.744,2.789,1.5,5.575,2.221,8.372Q26.47,31.3,27.572,26.91c.954-.007,1.911.012,2.865-.027-.313,1.1-.7,2.182-.957,3.3a6.6,6.6,0,0,1,12.034.572c-.1-2.725,0-5.453-.056-8.178m-9.739,9.282c2.417.088,4.839.029,7.259.029a3.749,3.749,0,0,0-7.259-.029m15.224-2.41a3.822,3.822,0,0,0-2.574,4.482A3.7,3.7,0,0,0,48.724,37a3.9,3.9,0,0,0,3.092-4.567,3.819,3.819,0,0,0-4.873-2.98m-15.2,4.731a3.306,3.306,0,0,0,1.4,2.388,3.786,3.786,0,0,0,5.345-.979q1.5-.011,2.994,0-.01-.708-.01-1.416c-3.246,0-6.488-.007-9.732.005Z" transform="translate(-13.377 -22.575)"/>
      </g>
      <g id="_ffa817ff" data-name="#ffa817ff" transform="translate(42.148 7.575)">
        <path id="Trazado_5380" data-name="Trazado 5380" d="M188.431,41.378a5.883,5.883,0,0,1,8.474-.692,6.818,6.818,0,0,1,1.872,3.065,6.237,6.237,0,0,1,6.98-4.465,4.81,4.81,0,0,1,3.33,2.114q.007-.9.01-1.8c1.671-.022,3.339-.015,5.01,0,1.023,2.772,2,5.563,3.092,8.311q1.464-4.172,3.014-8.311c1.052,0,2.1,0,3.153-.007-2.187,5.649-4.423,11.28-6.6,16.932-1.059-.007-2.116,0-3.173-.007.687-1.629,1.375-3.261,2.092-4.878-1.248-3.06-2.4-6.155-3.645-9.216.017,3.237.007,6.476.007,9.712H209.1c0-.6-.01-1.194-.012-1.791a5.106,5.106,0,0,1-5.492,2,5.941,5.941,0,0,1-4.768-4.323,6.38,6.38,0,0,1-3.86,4.076,5.518,5.518,0,0,1-6.375-1.627c.027,2.016,0,4.034.015,6.05h-2.933c-.042-5.641.015-11.283-.029-16.924h2.8c0,.594,0,1.187-.01,1.781m2.525.846a3.885,3.885,0,1,0,4.161,1,3.885,3.885,0,0,0-4.161-1m12.956-.022a3.972,3.972,0,0,0-1.979,5.685,3.9,3.9,0,0,0,5.617,1.12,4.007,4.007,0,0,0,.93-5.206,3.884,3.884,0,0,0-4.57-1.6Z" transform="translate(-185.643 -39.202)" fill="#ffa817"/>
      </g>
    </g>
  </g>
</svg>
